<?xml version="1.0" encoding="UTF-8" standalone="no"?><svg xmlns="http://www.w3.org/2000/svg" xmlns:xlink="http://www.w3.org/1999/xlink" contentScriptType="application/ecmascript" contentStyleType="text/css" height="128px" preserveAspectRatio="none" style="width:640px;height:128px;background:#FFFFFF;" version="1.1" viewBox="0 0 640 128" width="640px" zoomAndPan="magnify"><defs><filter height="300%" id="fxftfqcrf7g1u" width="300%" x="-1" y="-1"><feGaussianBlur result="blurOut" stdDeviation="2.0"/><feColorMatrix in="blurOut" result="blurOut2" type="matrix" values="0 0 0 0 0 0 0 0 0 0 0 0 0 0 0 0 0 0 .4 0"/><feOffset dx="4.0" dy="4.0" in="blurOut2" result="blurOut3"/><feBlend in="SourceGraphic" in2="blurOut3" mode="normal"/></filter></defs><g><!--MD5=[308776d74b2a5d846afb163fe34e8c31]
cluster object1--><rect fill="#FFFFFF" filter="url(#fxftfqcrf7g1u)" height="109" style="stroke:#000000;stroke-width:0.5;" width="118" x="7" y="7"/><line style="stroke:#000000;stroke-width:0.5;" x1="7" x2="125" y1="27.2969" y2="27.2969"/><text fill="#000000" font-family="sans-serif" font-size="14" font-weight="bold" lengthAdjust="spacing" textLength="75" x="28.5" y="21.9951">Проект 1</text><!--MD5=[ebf99bde4a3197236ae316b2a72e7061]
cluster object2--><rect fill="#FFFFFF" filter="url(#fxftfqcrf7g1u)" height="109" style="stroke:#000000;stroke-width:0.5;" width="108" x="520" y="7"/><line style="stroke:#000000;stroke-width:0.5;" x1="520" x2="628" y1="27.2969" y2="27.2969"/><text fill="#000000" font-family="sans-serif" font-size="14" font-weight="bold" lengthAdjust="spacing" textLength="75" x="536.5" y="21.9951">Проект 2</text><!--MD5=[6ecf743ec8941143cf89410cf35a2e5f]
entity action1--><ellipse cx="66" cy="71" fill="#FEFECE" filter="url(#fxftfqcrf7g1u)" rx="8" ry="8" style="stroke:#A80036;stroke-width:1.5;"/><text fill="#000000" font-family="sans-serif" font-size="14" lengthAdjust="spacing" textLength="71" x="30.5" y="100.9951">действие</text><text fill="#000000" font-family="sans-serif" font-size="14" font-style="italic" lengthAdjust="spacing" textLength="48" x="42" y="50.6982">«ТБД»</text><!--MD5=[ed70dea14e70b650dcbb10c2ebc01001]
entity action2--><ellipse cx="574" cy="71" fill="#FEFECE" filter="url(#fxftfqcrf7g1u)" rx="8" ry="8" style="stroke:#A80036;stroke-width:1.5;"/><text fill="#000000" font-family="sans-serif" font-size="14" lengthAdjust="spacing" textLength="61" x="543.5" y="100.9951">реакция</text><text fill="#000000" font-family="sans-serif" font-size="14" font-style="italic" lengthAdjust="spacing" textLength="48" x="550" y="50.6982">«ТБД»</text><!--MD5=[9de52e48e1fa3d5c2f7eb86fc9ec45e8]
entity interaction--><path d="M256.0482,56.4056 C259.5003,51.1773 263.9083,51.7115 266.2298,57.4548 C269.0763,51.085 275.1102,50.8842 278.9412,56.4021 C281.8501,52.044 286.2871,51.7526 289.3955,56.1642 C291.6983,50.4721 296.9752,47.8879 301.4869,53.8779 C304.9228,50.0495 309.0229,49.4341 311.4358,54.9654 C314.2083,48.2301 319.4976,48.9744 323.2397,53.9915 C327.1018,47.3678 331.3633,48.3826 335.4319,53.782 C338.7281,48.3954 343.1358,49.1519 346.283,53.9409 C350.7852,48.6132 354.2525,49.6247 357.778,54.9908 C361.8931,50.1844 365.4525,49.6968 368.5975,55.9406 C373.2569,50.2378 377.611,50.6492 380.9082,57.2982 C384.1457,52.3324 387.5306,52.0426 391.4638,56.5206 C401.1965,58.2459 403.3307,63.8272 398.8097,72.2214 C403.1383,80.1018 401.7439,85.3986 392.5027,87.7773 C390.3597,94.7921 384.6034,94.0888 380.5769,89.7569 C377.6906,95.3461 372.7154,95.3464 369.9461,89.6467 C367.8425,95.7789 363.2059,97.5598 358.1485,92.8654 C354.0141,97.9061 350.2259,98.8204 346.0288,92.9349 C343.807,98.8245 338.9601,100.7431 334.4748,95.228 C331.5176,99.7164 328.5718,100.6847 324.5823,96.3906 C320.2394,102.0973 314.9925,102.3571 311.7382,95.2954 C307.9252,100.7834 303.0378,100.4207 300.0721,94.434 C296.1733,98.2242 291.0416,97.7425 289.8657,91.6281 C285.8765,97.4344 280.6234,96.5076 278.4442,89.9553 C274.2488,95.1244 269.6245,95.1526 266.4688,88.8682 C262.2691,93.0404 258.7097,92.804 255.3716,87.8236 C245.9583,87.5139 243.504,81.1524 246.6977,73.3088 C242.6462,63.6286 244.9094,57.6829 256.0482,56.4056 " fill="#FFFFFF" filter="url(#fxftfqcrf7g1u)" style="stroke:#000000;stroke-width:1.5;"/><text fill="#000000" font-family="sans-serif" font-size="14" lengthAdjust="spacing" textLength="123" x="261" y="75.9951">взаимодействие</text><!--MD5=[c9823841ff409d13fa731d5cfc1d53a8]
link action1 to interaction--><path d="M75.18,71 C100.42,71 179.11,71 240.83,71 " fill="none" id="action1-to-interaction" style="stroke:#A80036;stroke-width:1.0;"/><polygon fill="#A80036" points="245.99,71,236.99,67,240.99,71,236.99,75,245.99,71" style="stroke:#A80036;stroke-width:1.0;"/><text fill="#000000" font-family="sans-serif" font-size="13" lengthAdjust="spacing" textLength="73" x="142" y="67.0669">стоимость</text><!--MD5=[73f0aeb8cf60c76221320482b6d222bb]
reverse link interaction to action2--><path d="M404.06,71 C464.15,71 539.94,71 564.74,71 " fill="none" id="interaction-backto-action2" style="stroke:#A80036;stroke-width:1.0;"/><polygon fill="#A80036" points="399.04,71,408.04,75,404.04,71,408.04,67,399.04,71" style="stroke:#A80036;stroke-width:1.0;"/><text fill="#000000" font-family="sans-serif" font-size="13" lengthAdjust="spacing" textLength="73" x="430" y="67.0669">стоимость</text></g></svg>