<?xml version="1.0" encoding="UTF-8" standalone="no"?><svg xmlns="http://www.w3.org/2000/svg" xmlns:xlink="http://www.w3.org/1999/xlink" contentScriptType="application/ecmascript" contentStyleType="text/css" height="128px" preserveAspectRatio="none" style="width:602px;height:128px;background:#FFFFFF;" version="1.1" viewBox="0 0 602 128" width="602px" zoomAndPan="magnify"><defs><filter height="300%" id="f1veqj8voueal4" width="300%" x="-1" y="-1"><feGaussianBlur result="blurOut" stdDeviation="2.0"/><feColorMatrix in="blurOut" result="blurOut2" type="matrix" values="0 0 0 0 0 0 0 0 0 0 0 0 0 0 0 0 0 0 .4 0"/><feOffset dx="4.0" dy="4.0" in="blurOut2" result="blurOut3"/><feBlend in="SourceGraphic" in2="blurOut3" mode="normal"/></filter></defs><g><!--MD5=[308776d74b2a5d846afb163fe34e8c31]
cluster object1--><rect fill="#FFFFFF" filter="url(#f1veqj8voueal4)" height="109" style="stroke:#000000;stroke-width:0.5;" width="118" x="7" y="7"/><line style="stroke:#000000;stroke-width:0.5;" x1="7" x2="125" y1="27.2969" y2="27.2969"/><text fill="#000000" font-family="sans-serif" font-size="14" font-weight="bold" lengthAdjust="spacing" textLength="59" x="36.5" y="21.9951">Вещь 1</text><!--MD5=[ebf99bde4a3197236ae316b2a72e7061]
cluster object2--><rect fill="#FFFFFF" filter="url(#f1veqj8voueal4)" height="109" style="stroke:#000000;stroke-width:0.5;" width="108" x="482" y="7"/><line style="stroke:#000000;stroke-width:0.5;" x1="482" x2="590" y1="27.2969" y2="27.2969"/><text fill="#000000" font-family="sans-serif" font-size="14" font-weight="bold" lengthAdjust="spacing" textLength="59" x="506.5" y="21.9951">Вещь 2</text><!--MD5=[6ecf743ec8941143cf89410cf35a2e5f]
entity action1--><ellipse cx="66" cy="71" fill="#FEFECE" filter="url(#f1veqj8voueal4)" rx="8" ry="8" style="stroke:#A80036;stroke-width:1.5;"/><text fill="#000000" font-family="sans-serif" font-size="14" lengthAdjust="spacing" textLength="71" x="30.5" y="100.9951">действие</text><text fill="#000000" font-family="sans-serif" font-size="14" font-style="italic" lengthAdjust="spacing" textLength="52" x="40" y="50.6982">«сила»</text><!--MD5=[ed70dea14e70b650dcbb10c2ebc01001]
entity action2--><ellipse cx="536" cy="71" fill="#FEFECE" filter="url(#f1veqj8voueal4)" rx="8" ry="8" style="stroke:#A80036;stroke-width:1.5;"/><text fill="#000000" font-family="sans-serif" font-size="14" lengthAdjust="spacing" textLength="61" x="505.5" y="100.9951">реакция</text><text fill="#000000" font-family="sans-serif" font-size="14" font-style="italic" lengthAdjust="spacing" textLength="52" x="510" y="50.6982">«сила»</text><!--MD5=[9de52e48e1fa3d5c2f7eb86fc9ec45e8]
entity interaction--><path d="M237.0482,56.4056 C240.5003,51.1773 244.9083,51.7115 247.2298,57.4548 C250.0763,51.085 256.1102,50.8842 259.9412,56.4021 C262.8501,52.044 267.2871,51.7526 270.3955,56.1642 C272.6983,50.4721 277.9752,47.8879 282.4869,53.8779 C285.9228,50.0495 290.0229,49.4341 292.4358,54.9654 C295.2083,48.2301 300.4976,48.9744 304.2397,53.9915 C308.1018,47.3678 312.3633,48.3826 316.4319,53.782 C319.7281,48.3954 324.1358,49.1519 327.283,53.9409 C331.7852,48.6132 335.2525,49.6247 338.778,54.9908 C342.8931,50.1844 346.4525,49.6968 349.5975,55.9406 C354.2569,50.2378 358.611,50.6492 361.9082,57.2982 C365.1457,52.3324 368.5306,52.0426 372.4638,56.5206 C382.1965,58.2459 384.3307,63.8272 379.8097,72.2214 C384.1383,80.1018 382.7439,85.3986 373.5027,87.7773 C371.3597,94.7921 365.6034,94.0888 361.5769,89.7569 C358.6906,95.3461 353.7154,95.3464 350.9461,89.6467 C348.8425,95.7789 344.2059,97.5598 339.1485,92.8654 C335.0141,97.9061 331.2259,98.8204 327.0288,92.9349 C324.807,98.8245 319.9601,100.7431 315.4748,95.228 C312.5176,99.7164 309.5718,100.6847 305.5823,96.3906 C301.2394,102.0973 295.9925,102.3571 292.7382,95.2954 C288.9252,100.7834 284.0378,100.4207 281.0721,94.434 C277.1733,98.2242 272.0416,97.7425 270.8657,91.6281 C266.8765,97.4344 261.6234,96.5076 259.4442,89.9553 C255.2488,95.1244 250.6245,95.1526 247.4688,88.8682 C243.2691,93.0404 239.7097,92.804 236.3716,87.8236 C226.9583,87.5139 224.504,81.1524 227.6977,73.3088 C223.6462,63.6286 225.9094,57.6829 237.0482,56.4056 " fill="#FFFFFF" filter="url(#f1veqj8voueal4)" style="stroke:#000000;stroke-width:1.5;"/><text fill="#000000" font-family="sans-serif" font-size="14" lengthAdjust="spacing" textLength="123" x="242" y="75.9951">взаимодействие</text><!--MD5=[c9823841ff409d13fa731d5cfc1d53a8]
link action1 to interaction--><path d="M75.11,71 C98.19,71 166.19,71 221.86,71 " fill="none" id="action1-to-interaction" style="stroke:#A80036;stroke-width:1.0;"/><polygon fill="#A80036" points="226.87,71,217.8815,66.9743,221.87,70.9857,217.8586,74.9743,226.87,71" style="stroke:#A80036;stroke-width:1.0;"/><text fill="#000000" font-family="sans-serif" font-size="13" lengthAdjust="spacing" textLength="54" x="142" y="67.0669">энергия</text><!--MD5=[73f0aeb8cf60c76221320482b6d222bb]
reverse link interaction to action2--><path d="M385.47,71 C439.37,71 504.27,71 526.82,71 " fill="none" id="interaction-backto-action2" style="stroke:#A80036;stroke-width:1.0;"/><polygon fill="#A80036" points="380.29,71,389.29,75,385.29,71,389.29,67,380.29,71" style="stroke:#A80036;stroke-width:1.0;"/><text fill="#000000" font-family="sans-serif" font-size="13" lengthAdjust="spacing" textLength="54" x="411" y="67.0669">энергия</text></g></svg>