<?xml version="1.0" encoding="UTF-8" standalone="no"?><svg xmlns="http://www.w3.org/2000/svg" xmlns:xlink="http://www.w3.org/1999/xlink" contentScriptType="application/ecmascript" contentStyleType="text/css" height="128px" preserveAspectRatio="none" style="width:664px;height:128px;background:#FFFFFF;" version="1.1" viewBox="0 0 664 128" width="664px" zoomAndPan="magnify"><defs><filter height="300%" id="fi5nubr0odacq" width="300%" x="-1" y="-1"><feGaussianBlur result="blurOut" stdDeviation="2.0"/><feColorMatrix in="blurOut" result="blurOut2" type="matrix" values="0 0 0 0 0 0 0 0 0 0 0 0 0 0 0 0 0 0 .4 0"/><feOffset dx="4.0" dy="4.0" in="blurOut2" result="blurOut3"/><feBlend in="SourceGraphic" in2="blurOut3" mode="normal"/></filter></defs><g><!--MD5=[308776d74b2a5d846afb163fe34e8c31]
cluster object1--><rect fill="#FFFFFF" filter="url(#fi5nubr0odacq)" height="109" style="stroke:#000000;stroke-width:0.5;" width="118" x="7" y="7"/><line style="stroke:#000000;stroke-width:0.5;" x1="7" x2="125" y1="27.2969" y2="27.2969"/><text fill="#000000" font-family="sans-serif" font-size="14" font-weight="bold" lengthAdjust="spacing" textLength="55" x="38.5" y="21.9951">Кейс 1</text><!--MD5=[ebf99bde4a3197236ae316b2a72e7061]
cluster object2--><rect fill="#FFFFFF" filter="url(#fi5nubr0odacq)" height="109" style="stroke:#000000;stroke-width:0.5;" width="108" x="544" y="7"/><line style="stroke:#000000;stroke-width:0.5;" x1="544" x2="652" y1="27.2969" y2="27.2969"/><text fill="#000000" font-family="sans-serif" font-size="14" font-weight="bold" lengthAdjust="spacing" textLength="55" x="570.5" y="21.9951">Кейс 2</text><!--MD5=[6ecf743ec8941143cf89410cf35a2e5f]
entity action1--><ellipse cx="66" cy="71" fill="#FEFECE" filter="url(#fi5nubr0odacq)" rx="8" ry="8" style="stroke:#A80036;stroke-width:1.5;"/><text fill="#000000" font-family="sans-serif" font-size="14" lengthAdjust="spacing" textLength="71" x="30.5" y="100.9951">действие</text><text fill="#000000" font-family="sans-serif" font-size="14" font-style="italic" lengthAdjust="spacing" textLength="55" x="38.5" y="50.6982">«лицо»</text><!--MD5=[ed70dea14e70b650dcbb10c2ebc01001]
entity action2--><ellipse cx="598" cy="71" fill="#FEFECE" filter="url(#fi5nubr0odacq)" rx="8" ry="8" style="stroke:#A80036;stroke-width:1.5;"/><text fill="#000000" font-family="sans-serif" font-size="14" lengthAdjust="spacing" textLength="61" x="567.5" y="100.9951">реакция</text><text fill="#000000" font-family="sans-serif" font-size="14" font-style="italic" lengthAdjust="spacing" textLength="55" x="570.5" y="50.6982">«лицо»</text><!--MD5=[9de52e48e1fa3d5c2f7eb86fc9ec45e8]
entity interaction--><path d="M268.0482,56.4056 C271.5003,51.1773 275.9083,51.7115 278.2298,57.4548 C281.0763,51.085 287.1102,50.8842 290.9412,56.4021 C293.8501,52.044 298.2871,51.7526 301.3955,56.1642 C303.6983,50.4721 308.9752,47.8879 313.4869,53.8779 C316.9228,50.0495 321.0229,49.4341 323.4358,54.9654 C326.2083,48.2301 331.4976,48.9744 335.2397,53.9915 C339.1018,47.3678 343.3633,48.3826 347.4319,53.782 C350.7281,48.3954 355.1358,49.1519 358.283,53.9409 C362.7852,48.6132 366.2525,49.6247 369.778,54.9908 C373.8931,50.1844 377.4525,49.6968 380.5975,55.9406 C385.2569,50.2378 389.611,50.6492 392.9082,57.2982 C396.1457,52.3324 399.5306,52.0426 403.4638,56.5206 C413.1965,58.2459 415.3307,63.8272 410.8097,72.2214 C415.1383,80.1018 413.7439,85.3986 404.5027,87.7773 C402.3597,94.7921 396.6034,94.0888 392.5769,89.7569 C389.6906,95.3461 384.7154,95.3464 381.9461,89.6467 C379.8425,95.7789 375.2059,97.5598 370.1485,92.8654 C366.0141,97.9061 362.2259,98.8204 358.0288,92.9349 C355.807,98.8245 350.9601,100.7431 346.4748,95.228 C343.5176,99.7164 340.5718,100.6847 336.5823,96.3906 C332.2394,102.0973 326.9925,102.3571 323.7382,95.2954 C319.9252,100.7834 315.0378,100.4207 312.0721,94.434 C308.1733,98.2242 303.0416,97.7425 301.8657,91.6281 C297.8765,97.4344 292.6234,96.5076 290.4442,89.9553 C286.2488,95.1244 281.6245,95.1526 278.4688,88.8682 C274.2691,93.0404 270.7097,92.804 267.3716,87.8236 C257.9583,87.5139 255.504,81.1524 258.6977,73.3088 C254.6462,63.6286 256.9094,57.6829 268.0482,56.4056 " fill="#FFFFFF" filter="url(#fi5nubr0odacq)" style="stroke:#000000;stroke-width:1.5;"/><text fill="#000000" font-family="sans-serif" font-size="14" lengthAdjust="spacing" textLength="123" x="273" y="75.9951">взаимодействие</text><!--MD5=[c9823841ff409d13fa731d5cfc1d53a8]
link action1 to interaction--><path d="M75.27,71 C101.9,71 187.5,71 252.92,71 " fill="none" id="action1-to-interaction" style="stroke:#A80036;stroke-width:1.0;"/><polygon fill="#A80036" points="257.99,71,248.99,67,252.99,71,248.99,75,257.99,71" style="stroke:#A80036;stroke-width:1.0;"/><text fill="#000000" font-family="sans-serif" font-size="13" lengthAdjust="spacing" textLength="85" x="142" y="67.0669">информация</text><!--MD5=[73f0aeb8cf60c76221320482b6d222bb]
reverse link interaction to action2--><path d="M416.48,71 C480.38,71 562.93,71 588.85,71 " fill="none" id="interaction-backto-action2" style="stroke:#A80036;stroke-width:1.0;"/><polygon fill="#A80036" points="411.14,71,420.14,75,416.14,71,420.14,67,411.14,71" style="stroke:#A80036;stroke-width:1.0;"/><text fill="#000000" font-family="sans-serif" font-size="13" lengthAdjust="spacing" textLength="85" x="442" y="67.0669">информация</text></g></svg>