<?xml version="1.0" encoding="UTF-8" standalone="no"?><svg xmlns="http://www.w3.org/2000/svg" xmlns:xlink="http://www.w3.org/1999/xlink" contentScriptType="application/ecmascript" contentStyleType="text/css" height="326px" preserveAspectRatio="none" style="width:259px;height:326px;background:#FFFFFF;" version="1.1" viewBox="0 0 259 326" width="259px" zoomAndPan="magnify"><defs><filter height="300%" id="fwb7s3urwsix5" width="300%" x="-1" y="-1"><feGaussianBlur result="blurOut" stdDeviation="2.0"/><feColorMatrix in="blurOut" result="blurOut2" type="matrix" values="0 0 0 0 0 0 0 0 0 0 0 0 0 0 0 0 0 0 .4 0"/><feOffset dx="4.0" dy="4.0" in="blurOut2" result="blurOut3"/><feBlend in="SourceGraphic" in2="blurOut3" mode="normal"/></filter></defs><g><!--MD5=[1e0e2dbac2f3cca3269c18ad1edf5798]
entity q1--><rect fill="#FFFFFF" filter="url(#fwb7s3urwsix5)" height="29.2813" rx="50" ry="50" style="stroke:#000000;stroke-width:0.5;" width="35" x="124.92" y="7"/><text fill="#000000" font-family="sans-serif" font-size="20" lengthAdjust="spacing" textLength="15" x="134.92" y="28.5645">&amp;</text><!--MD5=[5aa9fe14e2b4221da937042b0842c101]
entity q2--><rect fill="#FFFFFF" filter="url(#fwb7s3urwsix5)" height="29.2813" rx="50" ry="50" style="stroke:#000000;stroke-width:0.5;" width="37" x="37.92" y="113"/><text fill="#000000" font-family="sans-serif" font-size="20" lengthAdjust="spacing" textLength="17" x="47.92" y="134.5645">⊸</text><!--MD5=[069eaaec29a6b8c454d568e733f4751e]
entity q3--><rect fill="#FFFFFF" filter="url(#fwb7s3urwsix5)" height="29.2813" rx="50" ry="50" style="stroke:#000000;stroke-width:0.5;" width="37" x="145.92" y="113"/><text fill="#000000" font-family="sans-serif" font-size="20" lengthAdjust="spacing" textLength="17" x="155.92" y="134.5645">+</text><!--MD5=[bb35893876b9d6425b6e47964d3dd4c2]
entity q4--><rect fill="#FFFFFF" filter="url(#fwb7s3urwsix5)" height="29.2813" rx="50" ry="50" style="stroke:#000000;stroke-width:0.5;" width="37" x="203.92" y="219"/><text fill="#000000" font-family="sans-serif" font-size="20" lengthAdjust="spacing" textLength="17" x="213.92" y="240.5645">×</text><!--MD5=[b74f1fb7f66e8f5cecabce00e1f06063]
entity q5--><rect fill="#FFFFFF" filter="url(#fwb7s3urwsix5)" height="29.2813" rx="50" ry="50" style="stroke:#000000;stroke-width:0.5;" width="33" x="101.92" y="219"/><text fill="#000000" font-family="sans-serif" font-size="20" lengthAdjust="spacing" textLength="13" x="111.92" y="240.5645">1</text><!--MD5=[20bf4446c75818ac1d27bcf0e6b6c741]
link q1 to q2--><path d="M124.91,22.62 C96.6,23.87 41.4,30.95 16.42,66 C6,80.62 19.6,97.73 33.69,110.01 " fill="none" id="q1-to-q2" style="stroke:#A80036;stroke-width:1.0;"/><polygon fill="#A80036" points="37.66,113.34,33.3391,104.4896,33.8306,110.125,28.1952,110.6166,37.66,113.34" style="stroke:#A80036;stroke-width:1.0;"/><text fill="#000000" font-family="sans-serif" font-size="13" lengthAdjust="spacing" textLength="56" x="17.42" y="79.0669">enqueue</text><!--MD5=[71815879ad0dc76ea00207f77cc997dc]
reverse link q1 to q2--><path d="M127.93,40.02 C110.93,60.58 83.12,94.21 67.66,112.9 " fill="none" id="q1-backto-q2" style="stroke:#A80036;stroke-width:1.0;"/><polygon fill="#A80036" points="131.18,36.1,122.3646,40.492,127.996,39.9551,128.5328,45.5864,131.18,36.1" style="stroke:#A80036;stroke-width:1.0;"/><text fill="#000000" font-family="sans-serif" font-size="13" lengthAdjust="spacing" textLength="9" x="106.42" y="79.0669">A</text><!--MD5=[169c3edad13a690634f80b6c383fe3bc]
link q1 to q3--><path d="M145.3,36.1 C149.18,54.47 156.13,87.3 160.49,107.93 " fill="none" id="q1-to-q3" style="stroke:#A80036;stroke-width:1.0;"/><polygon fill="#A80036" points="161.54,112.9,163.6001,103.269,160.5099,108.0073,155.7717,104.9171,161.54,112.9" style="stroke:#A80036;stroke-width:1.0;"/><text fill="#000000" font-family="sans-serif" font-size="13" lengthAdjust="spacing" textLength="56" x="156.42" y="79.0669">dequeue</text><!--MD5=[a9245f1c7a0e47bf17e68bd1e0824140]
link q3 to q4--><path d="M169.02,142.43 C173.44,155.01 180.72,173.82 189.42,189 C194.51,197.88 201.18,207.01 207.19,214.6 " fill="none" id="q3-to-q4" style="stroke:#A80036;stroke-width:1.0;"/><polygon fill="#A80036" points="210.44,218.65,207.8902,209.1369,207.2957,214.7624,201.6701,214.1679,210.44,218.65" style="stroke:#A80036;stroke-width:1.0;"/><text fill="#000000" font-family="sans-serif" font-size="13" lengthAdjust="spacing" textLength="36" x="190.42" y="185.0669">some</text><!--MD5=[e64a01fded2bfb9a7f9195feb99e8a87]
link q3 to q5--><path d="M145.9,139.25 C134.8,146.83 121.67,158.1 115.42,172 C109.53,185.09 110.78,201.42 113.22,213.82 " fill="none" id="q3-to-q5" style="stroke:#A80036;stroke-width:1.0;"/><polygon fill="#A80036" points="114.32,218.87,116.2993,209.2221,113.249,213.9861,108.485,210.9357,114.32,218.87" style="stroke:#A80036;stroke-width:1.0;"/><text fill="#000000" font-family="sans-serif" font-size="13" lengthAdjust="spacing" textLength="32" x="116.42" y="185.0669">none</text><!--MD5=[be5f6c8871d442b241fc2adeed1e3b54]
reverse link q1 to q4--><path d="M165.24,28.61 C183.66,34.82 208.54,46.38 221.42,66 C252.98,114.09 236.08,188.03 226.99,218.57 " fill="none" id="q1-backto-q4" style="stroke:#A80036;stroke-width:1.0;"/><polygon fill="#A80036" points="160.24,27,167.5906,33.5551,165.0016,28.5254,170.0313,25.9365,160.24,27" style="stroke:#A80036;stroke-width:1.0;"/><text fill="#000000" font-family="sans-serif" font-size="13" lengthAdjust="spacing" textLength="9" x="241.42" y="132.0669">A</text><rect fill="#DDDDDD" height="29.2969" rx="5" ry="5" style="stroke:#000000;stroke-width:1.0;" width="70" x="87.99" y="267.2813"/><text fill="#000000" font-family="sans-serif" font-size="14" font-weight="bold" lengthAdjust="spacing" textLength="50" x="93.99" y="285.2764">queue</text><text fill="#000000" font-family="sans-serif" font-size="11" font-weight="bold" lengthAdjust="spacing" textLength="8" x="143.99" y="288.9839">A</text><text fill="#888888" font-family="sans-serif" font-size="13" lengthAdjust="spacing" textLength="40" x="103.49" y="317.645">server</text></g></svg>